<svg t="1639494686517" class="icon" viewBox="0 0 1024 1024" version="1.1" xmlns="http://www.w3.org/2000/svg" p-id="30356" width="32" height="32"><path d="M145.114 148.89c-18.301-17.197-47.655-17.078-65.992 0.005-18.856 17.568-18.787 46.554-0.041 64.178l318.051 298.91L79.005 810.907c-18.715 17.589-18.633 46.592 0.088 64.146 18.353 17.205 47.679 17.224 66.02-0.008l352.231-330.967c18.452-17.34 18.066-46.642 0-64.165L145.114 148.89z" fill="" p-id="30357"></path><path d="M945.306 479.912L593.075 148.89c-18.3-17.197-47.655-17.078-65.992 0.005-18.856 17.568-18.787 46.554-0.041 64.178l318.051 298.91-318.126 298.924c-18.715 17.589-18.633 46.592 0.088 64.146 18.353 17.205 47.679 17.224 66.02-0.008l352.232-330.967c18.45-17.34 18.064-46.642-0.001-64.166z" p-id="30358"></path></svg>