<svg t="1637511208207" class="icon" viewBox="0 0 1024 1024" version="1.1" xmlns="http://www.w3.org/2000/svg" p-id="4425" width="32" height="32"><path d="M479.636407 0.102331c-264.794805 0-479.514121 214.688617-479.514121 479.513098 0 264.793782 214.719316 479.513098 479.514121 479.513098 264.794805 0 479.513098-214.719316 479.513098-479.513098C959.150528 214.790948 744.432235 0.102331 479.636407 0.102331zM479.636407 895.194402c-229.517347 0-415.578973-186.061626-415.578973-415.578973 0-229.550093 186.061626-415.57795 415.578973-415.57795 229.517347 0 415.578973 186.02888 415.578973 415.57795C895.21538 709.132776 709.153754 895.194402 479.636407 895.194402z" p-id="4426" fill="#FEAE1D"></path><path d="M578.412061 466.378963c19.354813-9.520841 33.716916-22.040992 43.394323-37.588083 9.425673-15.607466 14.234189-32.090882 14.234189-49.822732 0-18.857487-5.370311-36.992519-16.169261-54.257741-10.740622-17.389042-25.664519-30.188556-44.645826-38.554084-19.040658-8.30413-44.26618-12.487406-75.67247-12.487406L344.960101 273.668916l0 411.864372 157.091828 0c26.161846 0 48.327682-2.310625 66.494437-6.80601 17.981537-4.621251 33.029254-11.42419 45.017286-20.415982 11.988032-8.930393 22.040992-21.727861 30.219255-38.337143 8.116865-16.607236 12.173251-34.464953 12.173251-53.788044 0-23.976064-6.67912-44.7676-20.042475-62.46875C622.491998 486.202451 603.387895 473.745744 578.412061 466.378963zM399.468552 322.338383l82.294284 0c29.590945 0 50.508347 1.840928 62.746066 5.680373 12.113899 3.839445 21.539572 10.92584 28.033473 21.352307 6.619768 10.366092 9.867742 22.447245 9.867742 36.119639 0 14.391778-3.560082 26.412556-10.553357 35.933397-7.055696 9.613962-17.482163 16.452717-31.344892 20.541849-10.488889 3.184529-27.721365 4.77577-51.946093 4.77577l-89.098247 0L399.467529 322.338383zM591.399863 600.869027c-5.494131 9.990538-12.300141 17.605983-20.853957 22.850427-8.366551 5.244444-18.918885 8.990768-31.406291 11.237949-7.179516 1.375324-19.543102 1.998517-37.086663 1.998517L399.468552 636.95592l0-141.543713 95.281063 0c26.158776 0 46.26265 2.24718 60.311621 6.836709 13.862729 4.526083 24.789593 12.517081 32.653701 23.849174 7.868201 11.363815 11.80179 24.725124 11.80179 40.085974C599.515704 579.264986 596.768127 590.878488 591.399863 600.869027z" p-id="4427" fill="#FEAE1D"></path></svg>