<svg t="1638085592805" class="icon" viewBox="0 0 1024 1024" version="1.1" xmlns="http://www.w3.org/2000/svg" p-id="3081" width="32" height="32"><path d="M511.999488 847.882863c-28.734592 0-56.729303-2.604314-83.969807-7.099698L231.232673 960.185602 231.232673 761.40735C128.618486 689.355337 62.772174 578.889433 62.772174 454.825836c0-217.07906 201.129864-393.058051 449.228338-393.058051 248.084146 0 449.228338 175.980014 449.228338 393.058051C961.227826 671.917176 760.083635 847.882863 511.999488 847.882863zM511.999488 117.91762c-217.086932 0-393.074156 150.851707-393.074156 336.907193 0 114.166179 66.421434 214.898395 167.761552 275.820929l-1.768346 130.234133 132.171551-79.455633c30.4487 6.497994 62.117231 10.308787 94.910422 10.308787 217.101258 0 393.073132-150.825101 393.073132-336.907193C905.073644 268.769326 729.10177 117.91762 511.999488 117.91762zM736.614169 510.976694c-31.011542 0-56.154182-25.128307-56.154182-56.150858 0-31.010271 25.14264-56.151881 56.154182-56.151881s56.154182 25.14161 56.154182 56.151881C792.768351 485.848387 767.624687 510.976694 736.614169 510.976694zM511.999488 510.976694c-31.010518 0-56.153158-25.128307-56.153158-56.150858 0-31.010271 25.14264-56.151881 56.153158-56.151881 31.011542 0 56.154182 25.14161 56.154182 56.151881C568.15367 485.848387 543.01103 510.976694 511.999488 510.976694zM287.385831 510.976694c-31.010518 0-56.153158-25.128307-56.153158-56.150858 0-31.010271 25.14264-56.151881 56.153158-56.151881s56.153158 25.14161 56.153158 56.151881C343.53899 485.848387 318.39635 510.976694 287.385831 510.976694z" p-id="3082"></path></svg>