<svg t="1637062084639" class="icon" viewBox="0 0 1362 1024" version="1.1" xmlns="http://www.w3.org/2000/svg" p-id="49388" width="32" height="32"><path d="M1360.914746 342.264225c-13.892024-55.442188-105.722082-88.682318-240.613219-95.607346a514.382629 514.382629 0 0 0-952.715868 239.689882C50.741563 554.253998-11.835501 623.54624 2.056523 681.716469c13.892024 55.442188 105.722082 88.682318 237.843208 95.607346a515.305966 515.305966 0 0 0 954.184814-239.689882c115.333181-66.522231 180.722226-137.199479 166.830201-195.369708zM680.751162 94.22234a418.481494 418.481494 0 0 1 346.335302 181.519654 18.466739 18.466739 0 0 1 4.196986 6.925027 194.278491 194.278491 0 0 0 16.787945 24.930098 18.424769 18.424769 0 0 1 4.196986 6.925027 405.009169 405.009169 0 0 1 48.68504 170.43961 1807.432108 1807.432108 0 0 1-389.48032 141.312525 2022.94735 2022.94735 0 0 1-411.724346 58.212199 407.821149 407.821149 0 0 1-37.563027-170.43961 418.901193 418.901193 0 0 1 418.523464-419.82453zM109.079671 662.326393c-2.770011-2.770011-6.966997-2.770011-9.737008-4.196986 2.770011-2.770011 4.196986-4.196986 4.196987-6.925028a270.285911 270.285911 0 0 1 68.159056-55.442187 430.820634 430.820634 0 0 0 20.984931 85.912307 628.288835 628.288835 0 0 1-83.645935-19.348106z m571.671491 268.607117a418.649374 418.649374 0 0 1-326.861285-155.28849 1956.257239 1956.257239 0 0 0 378.358306-58.170229 1891.833501 1891.833501 0 0 0 361.654301-125.909586 418.229675 418.229675 0 0 1-413.193292 339.578154zM1255.234634 375.294506a344.698477 344.698477 0 0 1-68.159056 58.212199 430.652754 430.652754 0 0 0-20.984931-85.912308 370.426002 370.426002 0 0 1 86.248066 18.005071c2.770011 2.770011 6.966997 2.770011 9.737008 4.196986-1.385005 1.552885-4.113046 2.93789-6.883057 5.707902z" p-id="49389"></path><path d="M377.476939 512.703835a47.300035 47.300035 0 1 0 47.300035-47.132155 47.719733 47.719733 0 0 0-47.300035 47.132155zM775.267291 327.029165a69.628001 69.628001 0 0 0 69.544062 69.292242 69.292242 69.292242 0 1 0 0-138.500545 69.628001 69.628001 0 0 0-69.544062 69.208303zM587.494129 814.760932a47.300035 47.300035 0 1 0 47.300034-47.132155 48.64307 48.64307 0 0 0-47.300034 47.132155z" p-id="49390"></path></svg>