<svg t="1639319535585" class="icon" viewBox="0 0 1024 1024" version="1.1" xmlns="http://www.w3.org/2000/svg" p-id="2120" width="32" height="32"><path d="M662.869333 33.194667a27.434667 27.434667 0 0 1 45.866667-3.968c54.613333 71.893333 60.544 145.408 49.664 205.824 85.205333-49.792 169.386667-7.125333 234.496 59.093333 38.784 39.466667-21.418667 100.693333-60.202667 61.226667-41.130667-41.813333-81.749333-63.957333-125.781333-44.586667a242.474667 242.474667 0 0 1-36.309333 294.357333 238.933333 238.933333 0 0 1-55.594667 41.6c0.170667 4.437333 0.256 8.96 0.256 13.482667 0 186.88-150.570667 338.432-336.298667 338.432S42.666667 847.146667 42.666667 660.224c0-186.88 150.570667-338.389333 336.298666-338.389333l10.112 0.128c13.909333-26.624 33.109333-51.2 57.685334-72.064a238.634667 238.634667 0 0 1 176-55.04c-2.986667-68.352 21.333333-127.061333 40.106666-161.706667zM292.394667 518.997333a49.792 49.792 0 0 0-65.92 25.386667l-38.784 87.466667a50.346667 50.346667 0 0 0 45.525333 70.698666c19.114667 0 37.333333-11.093333 45.610667-29.781333l38.784-87.466667a50.346667 50.346667 0 0 0-25.216-66.304z" p-id="2121"></path></svg>