<svg t="1639398753428" class="icon" viewBox="0 0 1024 1024" version="1.1" xmlns="http://www.w3.org/2000/svg" p-id="5961" width="32" height="32"><path d="M512 32a478.72 478.72 0 0 1 190.4 39.232l2.816 1.28-0.512-1.792a32 32 0 0 1 13.952-33.6l5.12-2.688a32 32 0 0 1 41.792 17.344l33.92 83.968 1.472 7.936c0 2.112-0.64 4.864-3.136 14.528l-11.776 9.472c-16.512 12.8-19.2 11.52-35.648 3.328A416 416 0 1 0 928 512a32 32 0 1 1 64 0 479.488 479.488 0 0 1-211.712 398.08A480 480 0 1 1 512 32z" p-id="5962"></path><path d="M482.56 499.52a32 32 0 0 1 36.48-18.752l5.44 1.792 235.648 100.032a32 32 0 0 1-19.456 60.672l-5.504-1.792L499.52 541.44a32 32 0 0 1-16.96-41.92z" p-id="5963"></path><path d="M512 224a32 32 0 0 1 31.488 26.24L544 256v256a32 32 0 0 1-63.488 5.76L480 512V256a32 32 0 0 1 32-32z" p-id="5964"></path></svg>