<svg t="1637061850179" class="icon" viewBox="0 0 1024 1024" version="1.1" xmlns="http://www.w3.org/2000/svg" p-id="27815" width="32" height="32"><path d="M512 973.791c-52.461 0-103.358-10.689-151.278-31.771-46.168-20.311-87.599-49.354-123.143-86.323-35.445-36.868-63.266-79.779-82.688-127.543-20.079-49.376-30.26-101.791-30.26-155.789 0-76.174 20.685-150.313 59.818-214.401 10.648-17.44 33.421-22.946 50.86-12.296 17.44 10.649 22.945 33.42 12.296 50.861C215.566 449 198.63 509.804 198.63 572.366c0 180.544 140.577 327.427 313.369 327.427S825.368 752.91 825.368 572.366c0-110.518-52.83-212.837-141.32-273.704-16.836-11.581-21.097-34.617-9.516-51.453 11.58-16.836 34.617-21.097 51.453-9.516 108.566 74.677 173.383 199.789 173.383 334.674 0 53.998-10.181 106.413-30.259 155.789-19.424 47.764-47.244 90.676-82.689 127.543-35.543 36.97-76.975 66.013-123.142 86.324-47.919 21.078-98.816 31.768-151.278 31.768z" p-id="27816"></path><path d="M294.752 517.054c-2.053 0-4.121-0.171-6.188-0.521-23.418-3.969-44.603-23.504-73.119-67.428-16.428-25.304-29.16-49.675-29.694-50.7-9.44-18.123-2.402-40.468 15.721-49.909 18.119-9.441 40.464-2.405 49.905 15.715 0.212 0.404 9.875 18.854 22.492 38.897 4.915 7.808 9.235 14.218 12.989 19.471 9.437-16.672 20.913-38.662 32.433-64.923 24.901-56.77 55.18-145.879 58.018-248.004a37 37 0 0 1 51.565-32.98c2.023 0.867 50.15 21.817 102.025 71.623 30.269 29.062 55.959 62.223 76.356 98.561 14.638 26.078 26.541 53.808 35.616 82.916 7.76-15.36 15.787-36.988 22.426-67.31 4.369-19.961 24.091-32.601 44.057-28.231 19.962 4.37 32.602 24.096 28.23 44.057-30.781 140.595-96.974 158.175-109.931 160.272a36.998 36.998 0 0 1-42.465-30.799c-19.639-125.377-90.362-198.141-138.58-234.211-10.84 88.552-37.648 164.273-60.441 215.857-30.354 68.694-60.104 110.469-61.355 112.214a37.01 37.01 0 0 1-30.06 15.433z m11.917-71.585z m306.075-79.267c0 0.001 0 0.001 0 0 0 0.001 0 0.001 0 0z" p-id="27817"></path></svg>
