<svg t="1636905247355" class="icon" viewBox="0 0 1024 1024" version="1.1" xmlns="http://www.w3.org/2000/svg" p-id="8855" width="200" height="200"><path d="M376.832 474.112H130.048c-33.792 0-61.44-27.648-61.44-61.44V165.888c0-33.792 27.648-61.44 61.44-61.44h247.296c33.792 0 61.44 27.648 61.44 61.44v247.296c-0.512 33.792-27.648 60.928-61.952 60.928zM130.048 165.888v247.296h247.296V165.888H130.048zM739.84 525.312c-16.384 0-31.744-6.144-43.52-17.92L521.728 332.8c-11.776-11.776-17.92-27.136-17.92-43.52s6.144-31.744 17.92-43.52L696.32 71.168c11.776-11.776 27.136-17.92 43.52-17.92s31.744 6.144 43.52 17.92L957.952 245.76c11.776 11.776 17.92 27.136 17.92 43.52s-6.144 31.744-17.92 43.52L783.36 507.392c-11.776 11.776-27.136 17.92-43.52 17.92z m0-411.136l-174.592 174.592 174.592 174.592 174.592-174.592-174.592-174.592zM376.832 960.512H130.048c-33.792 0-61.44-27.648-61.44-61.44v-247.296c0-33.792 27.648-61.44 61.44-61.44h247.296c33.792 0 61.44 27.648 61.44 61.44v247.296c-0.512 34.304-27.648 61.44-61.952 61.44z m-246.784-308.224v247.296h247.296v-247.296H130.048zM863.232 960.512h-247.296c-33.792 0-61.44-27.648-61.44-61.44v-247.296c0-33.792 27.648-61.44 61.44-61.44h247.296c33.792 0 61.44 27.648 61.44 61.44v247.296c0 34.304-27.136 61.44-61.44 61.44z m-246.784-308.224v247.296h247.296v-247.296h-247.296z" p-id="8856"></path></svg>