<svg t="1639398678218" class="icon" viewBox="0 0 1024 1024" version="1.1" xmlns="http://www.w3.org/2000/svg" p-id="4418" width="32" height="32"><path d="M619.054545 423.563636l-214.10909-151.272727c-4.654545-4.654545-9.309091-4.654545-16.29091-4.654545-13.963636 0-25.6 11.636364-25.6 23.272727V600.436364c0 13.963636 11.636364 23.272727 25.6 23.272727 4.654545 0 11.636364-2.327273 13.963637-4.654546l216.436363-151.272727c6.981818-4.654545 11.636364-11.636364 11.636364-20.945454 0-11.636364-4.654545-18.618182-11.636364-23.272728z m-211.781818 137.309091v-232.727272l167.563637 116.363636-167.563637 116.363636z" fill="" p-id="4419"></path><path d="M756.363636 965.818182c-109.381818 0-197.818182-88.436364-197.818181-197.818182s88.436364-197.818182 197.818181-197.818182S954.181818 658.618182 954.181818 768s-88.436364 197.818182-197.818182 197.818182z m0-349.090909c-83.781818 0-151.272727 67.490909-151.272727 151.272727s67.490909 151.272727 151.272727 151.272727S907.636364 851.781818 907.636364 768s-67.490909-151.272727-151.272728-151.272727z" fill="" p-id="4420"></path><path d="M816.872727 795.927273l-39.563636-23.272728v-53.527272c0-11.636364-9.309091-23.272727-23.272727-23.272728-11.636364 0-23.272727 9.309091-23.272728 23.272728v74.472727c0 2.327273 0 2.327273 2.327273 4.654545 0 2.327273 2.327273 2.327273 2.327273 4.654546s2.327273 2.327273 2.327273 2.327273l2.327272 2.327272L791.272727 837.818182c2.327273 2.327273 6.981818 2.327273 11.636364 2.327273 6.981818 0 16.290909-4.654545 18.618182-11.636364 9.309091-11.636364 4.654545-25.6-4.654546-32.581818zM493.381818 837.818182H302.545455C174.545455 837.818182 69.818182 733.090909 69.818182 605.090909V279.272727C69.818182 151.272727 174.545455 46.545455 302.545455 46.545455h325.818181c128 0 232.727273 104.727273 232.727273 232.727272v237.381818c0 13.963636-9.309091 23.272727-23.272727 23.272728s-23.272727-9.309091-23.272727-23.272728V279.272727c0-102.4-83.781818-186.181818-186.181819-186.181818H302.545455c-102.4 0-186.181818 83.781818-186.181819 186.181818v325.818182c0 102.4 83.781818 186.181818 186.181819 186.181818h190.836363c13.963636 0 23.272727 9.309091 23.272727 23.272728s-11.636364 23.272727-23.272727 23.272727z" p-id="4421"></path></svg>