<svg t="1640935538609" class="icon" viewBox="0 0 1024 1024" version="1.1" xmlns="http://www.w3.org/2000/svg" p-id="3819" width="32" height="32"><path d="M688.004573 509.074368c0-70.293973-39.07597-128.803551-97.611132-156.119687l0 85.826737 97.611132 97.611132L688.004573 509.074368zM785.53691 509.074368c0 35.147498-7.77815 70.242807-19.460214 101.46081l58.536184 58.612932c27.290553-46.854121 38.997176-105.441471 38.997176-163.976632 0-167.852916-117.069299-308.36309-273.216615-343.510588l0 82.001619C703.614086 282.660708 785.53691 384.173706 785.53691 509.074368M211.760938 157.759023l-50.755987 50.757011 183.486988 183.488011-183.486988 0 0 234.142691 156.118664 0 195.195657 195.22124 0-261.535575 167.852916 167.82631c-27.316136 19.539009-54.633295 35.146475-89.780793 46.854121l0 82.001619c54.633295-11.758812 101.46081-35.146475 144.43967-70.293973l78.072123 78.04654 50.704822-50.754964-351.289762-351.264179L211.760938 157.759023zM512.320295 196.809411l-81.975013 82.001619 81.975013 81.922824L512.320295 196.809411z" p-id="3820"></path></svg>